<?xml version="1.0" standalone="no"?>
<!DOCTYPE svg PUBLIC "-//W3C//DTD SVG 1.1//EN" "http://www.w3.org/Graphics/SVG/1.1/DTD/svg11.dtd" >
<svg xmlns="http://www.w3.org/2000/svg">
<metadata></metadata>
<defs>
<font id="slabromanabold" horiz-adv-x="1071" >
<font-face units-per-em="2048" ascent="1638" descent="-410" />
<missing-glyph horiz-adv-x="501" />
<glyph horiz-adv-x="0" />
<glyph horiz-adv-x="682" />
<glyph horiz-adv-x="534" d="M-16 1501q10 -90 32.5 -146.5t63.5 -90.5q82 -66 188 -66q104 0 187 66q41 35 64.5 91t31.5 146h-115q-10 -59 -24.5 -88t-36.5 -45q-47 -33 -107 -33q-61 0 -106 33q-23 16 -38 46t-26 87h-114z" />
<glyph horiz-adv-x="534" d="M164 1245h207v221h-207v-221z" />
<glyph horiz-adv-x="534" d="M66 1397q0 -94 57 -160q61 -68 145 -68t144 68q59 70 59 160t-59 159q-59 68 -144 68q-84 0 -145 -68q-57 -66 -57 -159zM172 1397q0 51 29 82q27 31 67 30q39 0 68 -30q29 -35 29 -82t-29 -82q-29 -31 -68 -31q-41 0 -67 31q-29 31 -29 82z" />
<glyph unicode="&#xa;" horiz-adv-x="544" d="M-61 1206h147l287 328h-199zM180 1206h144l288 328h-200z" />
<glyph horiz-adv-x="540" d="M106 -193q0 -102 60 -159q57 -57 145 -58q33 0 62 7q14 4 27.5 9t33.5 15v150q-37 -18 -49 -23.5t-18 -7.5q-12 -4 -27 -4q-37 0 -66 28q-12 14 -20 36t-8 57q0 49 24 84q12 20 38 40.5t98 65.5h-166q-66 -39 -99 -98q-35 -63 -35 -142z" />
<glyph horiz-adv-x="534" d="M-41 1534l236 -328h145l238 328h-175l-135 -191l-137 191h-172z" />
<glyph unicode="&#xd;" horiz-adv-x="571" d="M41 -23h489v97h-143v1018h-344v-97h150v-921h-152v-97z" />
<glyph horiz-adv-x="321" d="M-330 -23h158l823 1539h-155z" />
<glyph horiz-adv-x="1142" d="M41 926h162v-850h-158v-99h494v99h-144v850h363v-850h-144v-99h488v99h-152v1016h-553q4 115 61.5 181t172.5 66q33 0 66.5 -8t61 -24.5t48 -45t24.5 -67.5h103q0 96 -32 158.5t-82 99.5t-112.5 52.5t-123.5 15.5q-207 0 -292 -107.5t-89 -320.5h-162v-166z" />
<glyph horiz-adv-x="1142" d="M41 987h164v-911h-160v-99h492v99h-140v911h199v105h-199q0 59 11.5 102t31.5 74q10 16 27.5 40.5t41 47t54.5 39t68 16.5q35 0 67.5 -2t61.5 -6v-1327h-148v-99h490v99h-150v1231v149v33h-47q-14 4 -34.5 8t-47.5 8q-43 6 -95 10.5t-118 4.5q-205 0 -305 -101 q-53 -53 -76.5 -135t-23.5 -192h-164v-105z" />
<glyph horiz-adv-x="1173" d="M70 1378h196l-2 -536l-184 -119v-184l184 118l-2 -581h-182v-99h1024v525h-119v-332h-516l2 621l184 118v185l-184 -119l2 403h211v111h-614v-111z" />
<glyph horiz-adv-x="536" d="M27 -23h483v97h-141v786l141 82v152l-141 -82v477h-342v-100h149v-490l-149 -88v-152l149 89v-674h-149v-97z" />
<glyph horiz-adv-x="1175" d="M86 -23h1004v494h-95v-307h-673l751 1124v201h-973v-479h99v295h632l-745 -1112v-216zM283 1931l235 -327h146l235 327h-172l-137 -190l-135 190h-172z" />
<glyph horiz-adv-x="962" d="M96 -23h770v412h-100v-239h-438l532 782v160h-751v-385h100v215h416l-529 -781v-164zM170 1534l238 -328h145l235 328h-172l-137 -191l-135 191h-174z" />
<glyph unicode=" "  horiz-adv-x="501" />
<glyph unicode="&#x09;" horiz-adv-x="501" />
<glyph unicode="&#xa0;" horiz-adv-x="501" />
<glyph unicode="!" horiz-adv-x="749" d="M258 1489l41 -1167h160l30 1167h-231zM270 -23h215v238h-215v-238z" />
<glyph unicode="&#x22;" horiz-adv-x="538" d="M59 1489l23 -612h137l23 612h-183zM297 1489l22 -612h138l24 612h-184z" />
<glyph unicode="#" d="M43 512h252l-66 -535h131l64 535h178l-63 -535h129l65 535h248v141h-229l22 193h254v141h-235l61 502h-131l-61 -502h-179l62 502h-129l-62 -502h-264v-141h246l-23 -193h-270v-141zM442 653l25 193h176l-22 -193h-179z" />
<glyph unicode="$" horiz-adv-x="1069" d="M96 1094q0 -178 99 -273q47 -47 121.5 -87t172.5 -79q68 -27 120.5 -54.5t92.5 -55.5q35 -25 54.5 -69t19.5 -114q0 -111 -59 -169q-59 -61 -164 -62q-92 0 -178 78q-29 25 -56.5 47.5t-50.5 48.5q-27 29 -42 58.5t-15 76.5h-100v-463h102v125q10 -10 22.5 -17t22.5 -13 q29 -16 56.5 -30.5t47.5 -29.5q53 -35 119 -51v-217h127v213q152 12 250 117q115 120 115 317q0 160 -80 264q-82 102 -277 174q-63 23 -118.5 50.5t-106.5 56.5q-92 55 -92 176q0 104 55.5 163.5t151.5 59.5q37 0 79 -5t79.5 -15t68.5 -23.5t47 -31.5q33 -37 50.5 -90.5 t21.5 -133.5h96v449h-102v-84q-45 55 -115 82q-29 10 -64.5 14t-58.5 4v207h-127v-201q-170 -12 -270 -112q-115 -115 -115 -301z" />
<glyph unicode="%" horiz-adv-x="1712" d="M258 1133q0 -176 72 -283q76 -111 207 -111q133 0 206 109q39 53 56.5 123.5t17.5 156.5q0 180 -67 281q-74 106 -209 107q-131 0 -207 -111q-76 -106 -76 -272zM395 -47h160l762 1563h-158zM430 1124q0 109 35 179q29 59 78 59t75 -53q31 -61 31 -176q0 -109 -33 -179 q-16 -33 -35.5 -46t-41.5 -13q-49 0 -78 55q-31 61 -31 174zM895 342q0 -170 72 -279q76 -111 207 -110q131 0 208 108q72 103 72 277q0 178 -70 280q-72 104 -206 105q-129 0 -207 -109q-76 -106 -76 -272zM1069 334q0 113 33 176q29 59 78 59t75 -53q29 -61 29 -174 t-33 -176q-29 -57 -75 -57q-51 0 -78 53q-29 63 -29 172z" />
<glyph unicode="&#x26;" horiz-adv-x="1497" d="M127 383q0 -170 111 -305q113 -137 321 -137q152 0 254 63q33 20 65.5 47t63.5 62l107 -136h323v107h-168l-139 203q23 39 38 79t27 83q8 31 16.5 70.5t14.5 83.5t10.5 88t8.5 81h166v115h-488v-115h139q-2 -43 -8 -109.5t-16 -117.5q-8 -53 -29 -103l-272 342 q94 59 153 138q86 106 86 270q0 78 -23.5 139.5t-72.5 104.5q-100 84 -229 84q-160 0 -258 -90q-100 -92 -101 -252q0 -106 41 -183q20 -35 44 -71.5t53 -75.5l10 -10q-84 -51 -152 -131q-96 -117 -96 -324zM336 395q0 119 55 191q39 49 107 100q53 -70 105 -137.5 t106 -132.5q29 -39 59 -78t61 -80q-20 -23 -42.5 -42t-47.5 -36q-80 -55 -178 -55q-92 0 -158 78q-68 76 -67 192zM436 1188q0 80 41 121q39 39 98 39q66 0 101 -41q18 -20 28.5 -52t10.5 -79q0 -94 -66 -170q-23 -23 -43 -44.5t-43 -37.5l-35 45q-8 10 -15 21t-15 26 q-8 12 -15.5 26.5t-15.5 28.5q-31 55 -31 117z" />
<glyph unicode="'" horiz-adv-x="270" d="M43 1489l23 -612h137l24 612h-184z" />
<glyph unicode="(" horiz-adv-x="641" d="M98 555q0 -299 84 -555q41 -125 88 -225.5t105 -184.5h186q-53 82 -96 176.5t-84 221.5q-82 246 -82 567q0 322 82 567q41 127 84 221.5t96 176.5h-186q-57 -84 -104.5 -184.5t-88.5 -225.5q-84 -256 -84 -555z" />
<glyph unicode=")" horiz-adv-x="636" d="M68 -410h188q59 84 109.5 184.5t95.5 225.5q43 127 65.5 264t22.5 291t-22.5 291t-65.5 264q-45 125 -95.5 225.5t-109.5 184.5h-188q59 -82 104 -176.5t90 -221.5q86 -250 86 -567q0 -319 -86 -567q-45 -127 -90 -221.5t-104 -176.5z" />
<glyph unicode="*" horiz-adv-x="854" d="M92 1130l238 -53l-164 -196l147 -123l115 235l115 -235l147 123l-164 196l236 53l-53 193l-220 -113l31 269h-184l29 -269l-218 113z" />
<glyph unicode="+" horiz-adv-x="1269" d="M154 649h401v-459h158v459h403v172h-403v453h-158v-453h-401v-172z" />
<glyph unicode="," horiz-adv-x="534" d="M145 -311h152l84 309v231h-227v-252h75z" />
<glyph unicode="-" horiz-adv-x="641" d="M86 616h469v154h-469v-154z" />
<glyph unicode="." horiz-adv-x="534" d="M154 -23h229v250h-229v-250z" />
<glyph unicode="/" horiz-adv-x="677" d="M-12 -23h174l528 1543h-174z" />
<glyph unicode="0" d="M98 733q0 -180 26 -321.5t79 -245.5q109 -213 332 -213t331 213q107 205 107 567q0 360 -105 570q-109 213 -331 213q-223 0 -334 -213q-53 -104 -79 -247t-26 -323zM307 733q0 285 60 451q29 80 70.5 115.5t97.5 35.5q55 0 98 -35.5t72 -115.5q57 -160 57 -451 q0 -289 -57 -448q-29 -80 -71 -116t-97 -36q-57 0 -99.5 36t-70.5 116q-59 166 -60 448z" />
<glyph unicode="1" d="M199 1057q68 51 110.5 88t79.5 74q27 25 50.5 50t45.5 54v-1245h-194v-101h579v101h-180v1411h-201q-37 -45 -70.5 -82t-68.5 -72q-37 -35 -73.5 -68.5t-77.5 -70.5v-139z" />
<glyph unicode="2" horiz-adv-x="1069" d="M113 -23h843v422h-102v-235h-545q70 72 168 174t193 219q53 66 102 135.5t86 140t58.5 140t21.5 135.5q0 98 -30.5 175t-84 128t-126 78t-154.5 27q-203 0 -308.5 -126t-111.5 -364h102q0 66 19.5 122t54.5 96t82 62.5t102 22.5q43 0 87 -18.5t79 -49t56.5 -72.5 t21.5 -89q0 -49 -20.5 -105.5t-54.5 -118t-80 -125t-97 -124.5q-51 -63 -104.5 -122t-101.5 -110t-89 -94t-67 -74v-250z" />
<glyph unicode="3" horiz-adv-x="1069" d="M115 432q0 -244 114.5 -361.5t311.5 -117.5q88 0 163.5 28.5t131 84t87 136.5t31.5 185q0 131 -54 227.5t-159 135.5q96 41 147.5 131t51.5 215q0 100 -28.5 178t-81 132t-125 82t-158.5 28q-88 0 -164 -30t-132 -88.5t-89 -144.5t-33 -198h115q0 57 21.5 108t56 88 t81 58.5t93.5 21.5t91 -17.5t76.5 -48t52 -74.5t19.5 -97q0 -137 -75.5 -195.5t-204.5 -58.5v-183q135 0 214 -63.5t79 -206.5q0 -51 -23 -96t-59.5 -78t-82.5 -52.5t-91 -19.5q-51 0 -98.5 21.5t-82.5 60.5t-56.5 92.5t-21.5 116.5h-118z" />
<glyph unicode="4" horiz-adv-x="1069" d="M74 369h549v-291h-197v-101h553v101h-164v291h180v98h-180v1022h-227l-514 -893v-227zM246 547l377 674v-674h-377z" />
<glyph unicode="5" horiz-adv-x="1073" d="M123 412q0 -223 109.5 -341t291.5 -118q106 0 186.5 39t133.5 107.5t79.5 163.5t26.5 206q0 98 -22.5 187t-70.5 157t-120.5 106.5t-171.5 38.5q-70 0 -133 -26.5t-108 -83.5l20 534h553v107h-741l-27 -909h195q29 98 85 147t132 49q55 0 95 -26.5t64.5 -70.5t36 -101.5 t11.5 -120.5t-17.5 -122t-50.5 -103t-80 -69.5t-106 -25.5q-47 0 -93.5 20.5t-82 57.5t-58 87t-22.5 110h-115z" />
<glyph unicode="6" d="M113 700q0 -80 5 -165.5t21.5 -168.5t46 -158t77.5 -131.5t119 -90t167 -33.5q100 0 177 41t129 109.5t77.5 161t25.5 196.5q0 94 -20 182t-65.5 157.5t-115 111.5t-167.5 42q-92 0 -161 -43t-116 -116q6 88 24.5 183t54.5 175t91.5 131t134.5 51q86 0 145.5 -67.5 t63.5 -171.5h113q-4 197 -95 308.5t-257 111.5q-104 0 -180 -37t-129.5 -98.5t-85 -143.5t-50 -172t-24.5 -184.5t-6 -180.5zM334 459q0 61 14 118.5t43 100.5t70 68.5t96 25.5q53 0 92 -25.5t63.5 -67.5t36 -98.5t11.5 -117.5t-12.5 -120.5t-38 -107t-65.5 -76t-93 -28.5 q-55 0 -96 27.5t-68 72.5t-40 104.5t-13 123.5z" />
<glyph unicode="7" d="M100 1042h119v256h549q-78 -184 -139.5 -334.5t-106.5 -271.5q-47 -125 -103.5 -299t-127.5 -416h217q57 211 107.5 375t93.5 291q45 129 110.5 295t151.5 377v174h-871v-447z" />
<glyph unicode="8" d="M115 393q0 -207 110 -323q113 -117 310 -117t309 119q112 120 112 327q0 152 -73 254q-53 72 -146 107q90 37 140 108q66 96 65 234q0 193 -110.5 303.5t-296.5 110.5q-184 0 -293 -115q-109 -111 -109 -309q0 -125 60 -218q45 -78 141 -116q-86 -33 -144 -107 q-76 -100 -75 -258zM317 410q0 121 62 194q31 35 69.5 52.5t92.5 17.5q96 0 153 -70q58 -71 58 -196q0 -131 -60 -207q-59 -70 -162 -70q-98 0 -153 74q-59 76 -60 205zM330 1094q0 117 57 182q55 66 150 65q96 0 151 -61q55 -65 55 -180q0 -113 -59 -189q-57 -72 -143 -71 q-94 0 -152 69q-59 72 -59 185z" />
<glyph unicode="9" horiz-adv-x="1069" d="M111 1008q0 -92 20.5 -181.5t64.5 -159t114.5 -112.5t168.5 -43q96 0 164 44t115 120q-4 -84 -17.5 -179.5t-45 -176t-85 -134t-137.5 -53.5q-43 0 -85 17.5t-73.5 50t-52 75.5t-22.5 97h-111q6 -197 96 -308.5t256 -111.5q104 0 180 36t129.5 98.5t86 143t51 172 t24.5 185.5t6 180q0 80 -5 166t-21.5 169t-46 157.5t-77.5 131t-119 90.5t-167 34q-102 0 -179 -41t-129 -110t-77.5 -161t-25.5 -196zM313 1012q0 61 12.5 118.5t39 103.5t66.5 73.5t93 27.5t93 -27.5t66 -72.5t39 -102.5t13 -118.5t-14 -118.5t-42 -102.5t-70 -72t-95 -27 q-55 0 -93 27t-61.5 71t-35 101t-11.5 119z" />
<glyph unicode=":" horiz-adv-x="749" d="M260 -23h229v250h-229v-250zM260 799h229v250h-229v-250z" />
<glyph unicode=";" horiz-adv-x="747" d="M252 -311h154l83 309v231h-229v-252h78zM258 799h229v250h-229v-250z" />
<glyph unicode="&#x3c;" horiz-adv-x="1269" d="M123 657l1022 -530v180l-828 424l828 424v180l-1022 -530v-148z" />
<glyph unicode="=" horiz-adv-x="1269" d="M156 492h958v172h-958v-172zM156 799h958v172h-958v-172z" />
<glyph unicode="&#x3e;" horiz-adv-x="1269" d="M123 127l1022 530v148l-1022 530v-180l829 -424l-829 -424v-180z" />
<glyph unicode="?" horiz-adv-x="960" d="M86 1069h104q0 80 24 130t57.5 80t71.5 40t71 10q47 0 92 -17.5t81 -47t57.5 -71.5t21.5 -91q0 -59 -12.5 -100t-35.5 -74q-23 -35 -52 -64.5t-58 -60.5q-31 -33 -61.5 -72t-55 -92t-39 -124t-14.5 -165v-35h205q0 88 13 150.5t35.5 109t51.5 81t59 67.5q16 16 32 33.5 t30 34.5q16 18 30.5 38.5t26.5 42.5q25 47 39 106.5t14 141.5q0 92 -31.5 165t-83.5 123t-122 76.5t-145 26.5q-180 0 -290 -106.5t-116 -335.5zM332 -23h215v238h-215v-238z" />
<glyph unicode="@" horiz-adv-x="1732" d="M166 549q0 -313 209 -546.5t536 -233.5q100 0 192.5 22.5t190.5 75.5l-57 110q-86 -43 -167 -62t-171 -19q-236 0 -424 182t-188 463q0 272 184 463q182 188 432 188q233 0 389 -149.5t156 -348.5q0 -197 -98 -334q-51 -72 -94.5 -103.5t-79.5 -31.5q-23 0 -41 21 q-10 10 -11 47v16q0 10 2 21l160 622h-133l-16 -75q-27 49 -64 71q-68 45 -129 45q-209 0 -336 -174q-127 -170 -127 -358q0 -82 21.5 -148.5t68.5 -113.5q86 -96 199 -97q90 0 166 45q23 16 43 31t37 31q16 -51 43 -76q39 -35 80 -35q156 0 293 178q133 176 133 412 q0 250 -189 442q-188 188 -479 189q-307 0 -518 -234q-213 -236 -213 -536zM621 455q0 145 90 282q86 129 217 129q61 0 108 -49q45 -51 45 -108q0 -96 -73 -293q-35 -94 -88.5 -137t-122.5 -43q-66 0 -121 53q-55 51 -55 166z" />
<glyph unicode="A" horiz-adv-x="1497" d="M51 -23h518v99h-188l115 389h501l131 -389h-204v-99h520v99h-96l-488 1413h-213l-475 -1413h-121v-99zM561 645l187 586l184 -586h-371z" />
<glyph unicode="B" horiz-adv-x="1280" d="M104 -23h648q197 0 309 119q115 117 115 322q0 160 -84 262q-51 63 -127 92q63 33 104 90q74 100 74 230q0 188 -94 290q-94 106 -269 107h-674v-98h181l-4 -1315h-179v-99zM487 158v504h252q119 0 172 -58q56 -55 56 -184q0 -119 -74 -189q-73 -73 -183 -73h-3h-220z M487 840v469h232q61 0 102 -13.5t66 -35.5q23 -23 36 -64t13 -102q0 -125 -66 -191q-68 -63 -194 -63h-189z" />
<glyph unicode="C" horiz-adv-x="1390" d="M129 729q0 -160 35 -301t107.5 -246.5t186 -167t271.5 -61.5q115 0 210 35t166 104.5t112 176t47 247.5h-123q-10 -174 -106.5 -272.5t-295.5 -98.5q-111 0 -185.5 48.5t-120.5 130.5t-65.5 187t-19.5 222q0 119 20.5 226.5t66.5 188.5t123 128t192 47 q158 0 231.5 -104.5t91.5 -294.5h111v565h-103v-146q-63 94 -159.5 131t-200.5 37q-154 0 -265.5 -64.5t-184 -173t-107.5 -249.5t-35 -295z" />
<glyph unicode="D" horiz-adv-x="1386" d="M90 -23h551q322 0 489 199q166 197 166 555t-159 555q-160 203 -482 203h-565v-98h182l-4 -1315h-178v-99zM473 158v1151h162q227 0 338 -152q117 -151 117 -444q0 -274 -121 -414q-121 -141 -355 -141h-141z" />
<glyph unicode="E" horiz-adv-x="1280" d="M102 -23h1076v502h-103v-321h-588v497h293v-219h105v621h-105v-221h-293v473h588v-303h103v483h-1076v-98h183l-2 -1315h-181v-99z" />
<glyph unicode="F" horiz-adv-x="1173" d="M68 -23h598v109h-213v543h282v-223h103v614h-103l-2 -211h-280v500h540v-310h113v490h-1038v-98h182l-4 -1315h-178v-99z" />
<glyph unicode="G" horiz-adv-x="1501" d="M102 731q0 -365 152 -567q150 -211 434 -211q119 0 234 65q76 43 122 111v-152h121v592h234v117h-551v-117h196q-2 -182 -98 -303q-98 -125 -241 -125q-178 0 -279 152q-104 154 -104 422q0 291 100 452q96 158 276 158q137 0 234 -90q47 -45 72.5 -119t31.5 -192h115 v565h-117v-133q-23 27 -48 50.5t-58 41.5q-100 63 -219 63q-289 0 -449 -211q-158 -207 -158 -569z" />
<glyph unicode="H" horiz-adv-x="1497" d="M82 -23h563v99h-180v569h569l-4 -569h-176v-99h561v99h-180l4 1315h176v98h-561v-98h180v-557h-569l2 557h178v98h-563v-98h180l-4 -1315h-176v-99z" />
<glyph unicode="I" horiz-adv-x="641" d="M39 -23h563v99h-180v1315h180v98h-563v-98h180v-1315h-180v-99z" />
<glyph unicode="J" horiz-adv-x="962" d="M41 475q0 -111 14.5 -206t53 -164.5t108.5 -109.5t182 -40q199 0 290 117.5t91 328.5l4 990h140v98h-535v-98h191v-963q0 -53 -6.5 -104.5t-31 -91t-75.5 -65.5t-141 -26q-53 0 -89 28t-56.5 74t-29 106.5t-8.5 125.5h-102z" />
<glyph unicode="K" horiz-adv-x="1286" d="M53 -23h563v99h-178v325v301l412 -626h-137v-99h520v99h-148l-452 702l407 613h154v98h-492v-98h136l-400 -543l4 543h174v98h-563v-98h185l-5 -1315h-180v-99z" />
<glyph unicode="L" horiz-adv-x="1175" d="M74 1391h186v-1315h-182v-99h1024v525h-103v-332h-534l2 1221h211v98h-604v-98z" />
<glyph unicode="M" horiz-adv-x="1816" d="M92 -23h535v99h-168v1124l356 -1223h176l359 1223v-1124h-168v-99h544v99h-180v1315h180v98h-487l-332 -1190l-321 1190h-494v-98h184v-1315h-184v-99z" />
<glyph unicode="N" horiz-adv-x="1497" d="M76 -23h549v99h-185v1130l551 -1229h252v1414h178v98h-540v-98h180v-1098l-533 1196h-452v-98h182v-1315h-182v-99z" />
<glyph unicode="O" horiz-adv-x="1497" d="M127 731q0 -352 166 -563q168 -215 457 -215q285 0 454 215q166 209 166 563q0 176 -40 317.5t-126 247.5q-170 215 -454 215q-289 0 -457 -215q-166 -213 -166 -565zM346 731q0 281 109 443q105 159 293 159h2q184 0 292 -159q111 -160 111 -443q0 -281 -111 -440 q-109 -160 -292 -160q-188 0 -295 160q-109 162 -109 440z" />
<glyph unicode="P" horiz-adv-x="1175" d="M72 -23h602v99h-215v504h262q174 0 278 127q105 124 105 329q0 215 -106.5 334t-305.5 119h-620v-98h184l-4 -1315h-180v-99zM459 760v549h178q135 0 197 -66q63 -68 63 -207q0 -143 -55 -211q-54 -65 -170 -65h-4h-209z" />
<glyph unicode="Q" horiz-adv-x="1497" d="M127 731q0 -352 166 -563q168 -215 448 -215q18 -125 90 -184q82 -66 189 -66q104 0 186 66q41 35 64.5 91t32.5 146h-115q-10 -59 -24.5 -88t-37.5 -45q-47 -33 -106 -33q-61 0 -107 33q-37 25 -55 88q209 33 346 207q166 209 166 563q0 176 -40 317.5t-126 247.5 q-170 215 -454 215q-289 0 -457 -215q-166 -213 -166 -565zM346 731q0 281 109 443q105 159 293 159h2q184 0 292 -159q111 -160 111 -443q0 -281 -111 -440q-109 -160 -292 -160q-188 0 -295 160q-109 162 -109 440z" />
<glyph unicode="R" horiz-adv-x="1284" d="M51 -23h561v99h-174v547h156q66 0 102.5 -11.5t51.5 -27.5q18 -20 36.5 -59.5t30.5 -100.5l94 -447h324v99h-143l-91 436q-18 84 -59 139q-23 29 -61 47q76 27 129 105q80 113 79 276q0 203 -98 307q-96 102 -289 103h-649v-98h185l-3 -1315h-182v-99zM438 805v504h226 q115 0 165 -58q54 -57 54 -186q0 -70 -16.5 -118t-45.5 -79q-63 -63 -192 -63h-191z" />
<glyph unicode="S" d="M92 1096q0 -102 31 -171t81 -117t113.5 -80t126.5 -56q31 -12 63 -24.5t60 -24.5q29 -14 55.5 -28.5t49.5 -31.5q43 -33 69.5 -78t26.5 -116q0 -117 -61.5 -174.5t-159.5 -57.5q-68 0 -124 29t-96 79t-62.5 119.5t-24.5 153.5h-111v-541h111v117q59 -78 148 -109.5 t179 -31.5q88 0 164 30.5t131.5 89t86 140.5t30.5 184q0 104 -30.5 177t-81 123.5t-114 83t-126.5 57.5q-31 12 -63 23t-60.5 23.5t-55 25t-49.5 28.5q-43 29 -68.5 69t-25.5 99q0 111 58.5 169t150.5 58q141 0 215 -100t74 -268h110v524h-110v-88q-31 33 -69 54.5t-79 33.5 t-82 17t-77 5q-86 0 -160 -26.5t-128 -78.5t-85 -130t-31 -180z" />
<glyph unicode="T" horiz-adv-x="1282" d="M98 975h99v313h346l-2 -1212h-195v-99h598v99h-199v1212h340v-313h101v514h-1088v-514z" />
<glyph unicode="U" horiz-adv-x="1390" d="M51 1391h158v-906q0 -229 133 -381q134 -151 343 -151h3q225 0 359 158q66 78 98.5 183t34.5 234l2 863h157v98h-534v-98h190v-846q0 -188 -82 -295q-80 -106 -213 -107q-139 0 -213 99q-37 52 -57 122q-18 64 -18 147v17l2 863h190v98h-553v-98z" />
<glyph unicode="V" horiz-adv-x="1390" d="M49 1391h111l424 -1414h213l434 1414h110v98h-497v-98h178l-326 -1129l-319 1129h182v98h-510v-98z" />
<glyph unicode="W" horiz-adv-x="1925" d="M68 1391h108l262 -1414h250l277 1280l272 -1280h248l270 1414h103v98h-478v-98h183l-199 -1108l-258 1206h-260l-275 -1196l-190 1098h180v98h-493v-98z" />
<glyph unicode="X" horiz-adv-x="1390" d="M43 -23h549v99h-182l286 514l271 -514h-174v-99h555v99h-131l-383 700l337 615h144v98h-531v-98h154l-231 -437l-228 437h156v98h-547v-98h145l338 -623l-391 -692h-137v-99z" />
<glyph unicode="Y" horiz-adv-x="1284" d="M39 1391h108l390 -799l-5 -516h-196v-99h602v99h-199v518l396 797h110v98h-485v-98h158l-271 -580l-270 580h166v98h-504v-98z" />
<glyph unicode="Z" horiz-adv-x="1175" d="M86 -23h1004v494h-95v-307h-673l751 1124v201h-973v-479h99v295h632l-745 -1112v-216z" />
<glyph unicode="[" horiz-adv-x="643" d="M162 -410h319v160h-119h-18v1610h18h119v160h-319v-1930z" />
<glyph unicode="\" horiz-adv-x="1110" d="M193 1520l555 -1543h170l-556 1543h-169z" />
<glyph unicode="]" horiz-adv-x="636" d="M158 -250v-160h321v1930h-321v-160h121h18v-1610h-18h-121z" />
<glyph unicode="^" horiz-adv-x="1269" d="M104 338h162l369 919l371 -919h159l-465 1151h-131z" />
<glyph unicode="_" horiz-adv-x="962" d="M8 -281v-178h946v178h-946z" />
<glyph unicode="`" horiz-adv-x="528" d="M43 1534l289 -328h145l-233 328h-201z" />
<glyph unicode="a" horiz-adv-x="1073" d="M68 303q0 -172 92 -264t239 -92q92 0 162 42t115 117v-129h330v93h-148v682q0 98 -28.5 168.5t-80 115.5t-120 66.5t-148.5 21.5q-158 0 -243.5 -87t-96.5 -294h101q2 55 24.5 96.5t57 67t77.5 37.5t86 12q98 0 143.5 -63.5t45.5 -177.5v-47q-41 0 -84 2q-22 1 -44 1 t-46 -1q-53 -2 -104.5 -7.5t-100.5 -19.5t-91 -39.5t-73 -66.5t-48 -98.5t-17 -135.5zM268 303q0 59 17.5 98t49.5 61.5t74 32t91 9.5q45 0 88 -2t88 -4q-2 -74 -17.5 -143.5t-47 -123t-81 -86t-116.5 -32.5q-72 0 -109 50t-37 140z" />
<glyph unicode="b" horiz-adv-x="1173" d="M63 -23h340v125q31 -45 84 -82q90 -57 185 -57q213 0 325 156q59 78 86 183.5t27 240.5q0 270 -109 424q-110 157 -312 157h-3q-82 0 -174 -51q-57 -31 -109 -102v518h-333v-98h143v-1317h-150v-97zM399 547q0 184 74 295q71 108 191 108h2q109 0 178 -108 q69 -113 69 -299q0 -188 -69 -297q-70 -106 -189 -107q-127 0 -190 99q-66 100 -66 309z" />
<glyph unicode="c" horiz-adv-x="964" d="M61 530q0 -117 29 -219t86 -180t142 -123t198 -45q80 0 148.5 28.5t121 83t83 133.5t36.5 177h-112q-4 -53 -27 -97t-55.5 -77t-72.5 -51.5t-81 -18.5q-66 0 -120 36t-92 93.5t-58.5 129t-20.5 141.5q0 76 13.5 148.5t44 130t79 91t119.5 33.5q47 0 94.5 -22.5t85 -62.5 t61 -93t23.5 -113h105v439h-105v-84q-59 61 -143 88.5t-156 27.5q-113 0 -192.5 -53t-131.5 -138t-77 -191.5t-25 -211.5z" />
<glyph unicode="d" horiz-adv-x="1179" d="M70 543q0 -129 26.5 -234.5t83.5 -183.5q111 -162 312 -162q100 0 190 60q49 33 86 88v-134h342v97h-152v1415h-344v-98h152v-406q-43 61 -102 92q-90 47 -175 47q-203 0 -313 -157q-106 -156 -106 -424zM268 553q0 178 72 291q69 108 178 108h2q117 0 180 -104 q68 -109 68 -320q0 -186 -66 -292q-63 -102 -180 -103q-119 0 -184 111q-70 113 -70 309z" />
<glyph unicode="e" horiz-adv-x="1073" d="M90 530q0 -129 28.5 -233t87 -178t147.5 -115t210 -41q74 0 142.5 25.5t123 76t92 124t50.5 167.5h-97q-2 -49 -30.5 -91t-69.5 -72.5t-87 -48t-85 -17.5q-72 0 -127 26.5t-95 73.5t-63.5 111.5t-29.5 140.5h694q0 129 -16.5 247t-62.5 206t-129 140t-218 52 q-121 0 -209 -47t-144.5 -129t-84 -189.5t-27.5 -228.5zM289 645q6 61 27.5 118.5t54 100.5t77 70t99.5 27q59 0 102 -25t72 -68t43 -100t16 -123q-82 4 -164 4q-42 0 -82 -1q-122 -3 -245 -3z" />
<glyph unicode="f" horiz-adv-x="645" d="M-2 993h164v-919h-158v-97h528v97h-178v919h199v99h-199v49q0 27 2 53q0 63 12.5 116.5t41 83t84.5 29.5q33 0 67.5 -4t85.5 -20v98q-55 10 -97 16.5t-85 6.5q-104 0 -164.5 -34t-91.5 -92.5t-39 -136t-8 -165.5h-164v-99z" />
<glyph unicode="g" horiz-adv-x="1177" d="M72 561q0 -115 21.5 -222.5t71.5 -190t132 -134t203 -51.5q90 0 160.5 37t123.5 106q-2 -76 -14 -140t-41 -111.5t-79 -74t-130 -26.5q-33 0 -82 6.5t-95 23.5t-80 49t-40 85h-82q8 -102 45 -167.5t92.5 -102.5t121 -50.5t132.5 -13.5q211 0 328 122t117 364v934h131v88 h-340v-119q-47 72 -113.5 110.5t-154.5 38.5q-113 0 -194 -46t-133 -124t-76.5 -179t-24.5 -212zM272 541q0 76 14.5 147.5t45 126.5t80 88t118.5 33q68 0 117 -37t80 -95.5t45 -131t14 -146.5t-16 -144.5t-50 -124.5t-83 -88t-117 -34t-115 36t-76.5 94.5t-43 130 t-13.5 145.5z" />
<glyph unicode="h" horiz-adv-x="1179" d="M47 -23h498v97h-154l2 565q0 139 60 227q57 84 151 84q53 0 87 -15t52 -44q41 -63 41 -211v-606h-151v-97h497v97h-151v688q0 172 -86 268q-88 94 -246 94q-156 0 -256 -125l2 490h-344v-100h150v-1315h-152v-97z" />
<glyph unicode="i" horiz-adv-x="571" d="M41 -23h489v97h-143v1018h-344v-97h150v-921h-152v-97zM180 1272h215v217h-215v-217z" />
<glyph unicode="j" horiz-adv-x="526" d="M-4 -266v-94q25 -8 39 -10.5t28 -6.5q14 -2 33 -3t41 -1q72 0 124 20.5t81 67.5q51 82 51 234v1151h-348v-101h156v-1118q0 -57 -7.5 -88t-17.5 -41q-23 -27 -72 -27zM188 1272h215v217h-215v-217z" />
<glyph unicode="k" d="M45 -23h475v97h-131v305l133 151l183 -454h-101v-99h422v99h-108l-256 600l264 311h84v105h-469v-105h168l-320 -383v885h-344v-98h150v-1317h-150v-97z" />
<glyph unicode="l" horiz-adv-x="536" d="M27 -23h483v97h-141v1415h-342v-100h149v-1315h-149v-97z" />
<glyph unicode="m" horiz-adv-x="1714" d="M70 -23h491v97h-147v565q0 150 57 231q51 80 141 80q78 0 117 -49q18 -27 28.5 -66.5t10.5 -99.5v-661h-143v-97h481v97h-145v585q0 131 57 213q53 78 143 78q78 0 115 -49q37 -53 37 -166v-661h-144v-97h476v97h-140v688q0 170 -84 266t-235 96q-94 0 -170 -55 q-59 -43 -92 -123q-29 66 -76 109q-71 69 -186 69h-3q-96 0 -176 -55q-39 -27 -69 -74v97h-344v-105h153v-913h-153v-97z" />
<glyph unicode="n" horiz-adv-x="1177" d="M53 -23h496v99h-148v563q0 139 60 227q57 84 147 84q100 0 137 -59q41 -63 41 -211v-604h-147v-99h485v99h-145v686q0 176 -84 268q-82 94 -240 94q-98 0 -174 -49q-47 -29 -80 -86v103h-346v-97h154v-919h-156v-99z" />
<glyph unicode="o" d="M78 543q0 -262 121 -420q125 -160 338 -160q211 0 333.5 160t122.5 420q0 262 -122.5 421.5t-333.5 159.5q-213 0 -338 -159q-121 -158 -121 -422zM279 543q0 195 67 305q68 104 191 104q119 0 186 -104q35 -55 52.5 -131t17.5 -174q0 -195 -70 -303q-68 -104 -186 -105 q-123 0 -191 105q-67 109 -67 297v6z" />
<glyph unicode="p" horiz-adv-x="1173" d="M63 -260v-94h492v94h-149v373q47 -66 102 -99q82 -51 172 -51q209 0 319 160q111 156 111 428q0 260 -106 416q-110 157 -306 157h-2q-84 0 -176 -51q-68 -39 -114 -119v138h-336v-105h143v-1247h-150zM406 543v20q0 96 19 168t54 123q70 100 189 100q117 0 182 -108 q68 -110 68 -303q0 -182 -72 -301q-66 -111 -178 -111q-125 0 -193 105q-35 53 -52 128.5t-17 178.5z" />
<glyph unicode="q" horiz-adv-x="1177" d="M66 543q0 -260 110 -420q117 -160 320 -160q88 0 172 47q55 35 102 103v-316v-151h342v108h-149v1233h147v105h-340v-121q-37 57 -94 94q-94 59 -189 59q-209 0 -315 -157q-106 -152 -106 -424zM260 543q0 188 70 303q65 108 182 108h2q113 0 182 -102q74 -104 74 -293 v-20q0 -186 -70 -301q-68 -106 -184 -107q-113 0 -182 111q-74 117 -74 301z" />
<glyph unicode="r" horiz-adv-x="751" d="M45 -23h518v97h-176v483q0 180 62 272q59 90 176 91l82 -13v203h-68q-115 0 -180 -45q-43 -29 -72 -88v115h-342v-105h150v-913h-150v-97z" />
<glyph unicode="s" horiz-adv-x="962" d="M104 -23h105v111q57 -68 140 -96.5t165 -28.5q68 0 129.5 22.5t109.5 66.5t75.5 108.5t27.5 146.5q0 92 -25.5 151.5t-67.5 96.5t-94.5 55.5t-103.5 30.5q-27 4 -52.5 9t-47.5 12q-53 10 -84 26q-35 16 -54.5 41t-19.5 72q0 39 14.5 68.5t39 48t55 27.5t63.5 9 q51 0 98.5 -15t83 -46t57 -79t21.5 -112h107v390h-105v-64q-29 27 -64.5 46.5t-74.5 29.5t-76 15t-67 5q-68 0 -129.5 -21.5t-108.5 -62.5t-75.5 -104.5t-28.5 -144.5q0 -92 25.5 -150.5t67.5 -94.5t93 -52.5t105 -26.5l98 -18q49 -10 82 -25q33 -16 52 -44t19 -79 q0 -78 -50 -123t-113 -45q-53 0 -101.5 16.5t-88.5 48t-66.5 80t-32.5 113.5h-103v-414z" />
<glyph unicode="t" horiz-adv-x="710" d="M27 987h161v-698q0 -70 10.5 -129.5t37 -103.5t74.5 -68.5t122 -24.5q80 0 129 32t77 85t37 122.5t9 147.5h-90q0 -33 -3 -71.5t-17.5 -71.5t-43 -54.5t-77.5 -21.5q-41 0 -56.5 34t-15.5 91v731h270v105h-270v284l-193 -84v-200h-161v-105z" />
<glyph unicode="u" horiz-adv-x="1175" d="M59 993h146v-631q0 -100 19.5 -175.5t60.5 -125.5q80 -98 254 -98q49 0 93 12.5t79 40.5q39 27 67 74v-113h340v97h-147v1018h-350v-99h157v-512q0 -162 -59 -258q-57 -92 -160 -92q-90 0 -123 62q-39 66 -39 213v686h-338v-99z" />
<glyph unicode="v" d="M39 987h98l289 -1010h219l285 1010h102v105h-438v-105h145l-200 -778l-199 778h147v105h-448v-105z" />
<glyph unicode="w" horiz-adv-x="1712" d="M59 987h113l242 -1010h229l215 889l215 -889h230l241 1010h107v105h-453v-105h154l-158 -758l-211 863h-242l-206 -861l-162 756h153v105h-467v-105z" />
<glyph unicode="x" d="M39 -23h444v97h-139l184 323l179 -323h-129v-97h454v97h-104l-273 465l265 448h100v105h-430v-105h129l-168 -299l-166 299h113v105h-443v-105h105l262 -432l-285 -481h-98v-97z" />
<glyph unicode="y" d="M39 987h96l309 -987q-10 -35 -21 -80t-28 -88q-18 -45 -38.5 -68.5t-49.5 -23.5q-25 0 -49 6q-12 2 -28.5 5t-47.5 7v-120q41 -4 75 -10.5t62 -6.5q63 0 109.5 21.5t80.5 58.5t57.5 86t41.5 107l353 1093h71v105h-432v-105h160l-213 -706l-217 706h155v105h-446v-105z " />
<glyph unicode="z" horiz-adv-x="962" d="M96 -23h770v412h-100v-239h-438l532 782v160h-751v-385h100v215h416l-529 -781v-164z" />
<glyph unicode="{" horiz-adv-x="577" d="M2 551q45 -12 73.5 -21.5t48 -18.5t30 -18.5t18.5 -19.5q14 -20 22.5 -52t8.5 -79v-440q0 -131 49 -219q29 -47 79 -70t122 -23l241 37q-88 6 -140 12.5t-82 14.5t-43 17.5t-21 21.5q-16 23 -26.5 65.5t-10.5 108.5v414q0 133 -45 202q-27 45 -74 72q47 27 74 72 q45 70 45 202v414q0 66 10 109t27 65q35 47 90 58l-4 45h-43q-70 0 -120 -22.5t-79 -70.5q-49 -90 -49 -219v-440q0 -47 -8.5 -79t-22.5 -52q-8 -10 -18.5 -19.5t-30 -19.5t-48 -21.5t-73.5 -25.5z" />
<glyph unicode="|" horiz-adv-x="1269" d="M557 -23h156v1543h-156v-1543z" />
<glyph unicode="}" horiz-adv-x="577" d="M-113 1483q88 -6 140.5 -12.5t82 -13.5t42 -16t20.5 -22q33 -49 33 -176v-414q0 -133 43 -202q29 -49 69 -72q-41 -23 -69 -72q-43 -72 -43 -202v-414q0 -127 -33 -176q-31 -45 -82 -56l4 -45h41q68 0 117 22.5t76 70.5q45 88 45 219v440q0 47 8 79t22 52q14 23 44 40 t110 46q-82 23 -110.5 40t-43 37.5t-22.5 52.5t-8 79v440q0 131 -45 219q-27 47 -76 70t-117 23z" />
<glyph unicode="~" horiz-adv-x="1269" d="M113 641l125 -92q29 57 49 88t41 53q39 37 90 37q41 0 192 -72q158 -76 242 -75q109 0 178 69q33 35 62.5 77t64.5 103l-123 91q-31 -53 -52 -85t-42 -55q-41 -37 -88 -37q-43 0 -193 72q-158 76 -241 76q-109 0 -178 -70q-33 -35 -63 -77t-64 -103z" />
<glyph unicode="&#xa1;" horiz-adv-x="749" d="M258 -385h234l-43 1167h-158zM262 889h217v237h-217v-237z" />
<glyph unicode="&#xa2;" horiz-adv-x="1073" d="M121 532q0 -102 21.5 -195t67.5 -169t115.5 -127t168.5 -68v-196h118v192q145 16 238.5 125t101.5 295h-182q-8 -94 -50 -158.5t-108 -80.5v790q43 -10 83 -35.5t71 -63.5t49.5 -86t18.5 -102h106v439h-104v-88q-47 45 -108.5 73.5t-115.5 38.5v182h-118v-176 q-100 -12 -171 -70.5t-116 -141.5t-65.5 -182t-20.5 -196zM326 543q0 61 8 121.5t27.5 110.5t51 90t81.5 63v-764q-45 23 -77 62.5t-52.5 91t-29.5 109.5t-9 116z" />
<glyph unicode="&#xa3;" horiz-adv-x="1067" d="M86 713h154v-637h-148v-99h873v404h-109v-217h-412v549h228v184h-228v176q0 111 58.5 183.5t161.5 72.5q39 0 75.5 -13t64 -40t45 -66t17.5 -88h115q0 96 -26.5 170t-75 123t-113 75t-137.5 26q-139 0 -218 -53.5t-117 -141.5t-46 -198.5t-8 -225.5h-154v-184z" />
<glyph unicode="&#xa4;" horiz-adv-x="1380" d="M49 492h170q20 -117 66.5 -215.5t118 -171t170 -112.5t225.5 -40q115 0 210 35t165.5 104.5t111.5 176t47 247.5h-123q-10 -174 -106 -272.5t-295 -98.5q-80 0 -141.5 26t-105.5 72t-73.5 109.5t-46.5 139.5h566v172h-588q-2 16 -2 34v35v33q0 16 2 33h588v172h-568 q16 78 46 142.5t76 111.5t109.5 72.5t147.5 25.5q158 0 231.5 -104.5t92.5 -294.5h110v565h-102v-146q-63 94 -159.5 131t-200.5 37q-123 0 -218.5 -42t-166 -114.5t-116.5 -172t-69 -211.5h-172v-172h150v-70v-65h-150v-172z" />
<glyph unicode="&#xa5;" d="M-68 1382h111l274 -575h-333v-137h405l43 -78v-25h-448v-137h446l-2 -354h-197v-99h598v99h-198v354h450v137h-450v27l41 76h409v137h-338l283 575h113v107h-486v-107h154l-266 -571l-269 571h162v107h-502v-107z" />
<glyph unicode="&#xa6;" horiz-adv-x="1269" d="M557 -23h156v648h-156v-648zM557 870h156v650h-156v-650z" />
<glyph unicode="&#xa7;" d="M147 635q0 -76 27 -130t68 -94t93 -69t105 -53q27 -10 52.5 -21.5t48.5 -23.5q51 -23 88 -47q35 -25 55.5 -55.5t20.5 -71.5q0 -37 -17.5 -66t-45.5 -49.5t-62.5 -30.5t-67.5 -10q-94 0 -159.5 58.5t-65.5 174.5h-115q0 -223 97.5 -317t273.5 -94q68 0 133 19.5 t117.5 59.5t84 103.5t31.5 153.5q0 82 -30.5 150.5t-90.5 115.5q68 41 102 114.5t34 159.5q0 76 -27 131.5t-68 95.5t-94 68.5t-104 50.5q-27 10 -52.5 22.5t-50.5 23.5q-45 20 -86 47q-37 25 -57 55.5t-20 71.5q0 37 17 65.5t46 49t63.5 30.5t69.5 10q90 0 155.5 -60.5 t65.5 -172.5h117q0 113 -24.5 190.5t-72.5 126.5t-117 71.5t-157 22.5q-68 0 -133 -19t-117.5 -59t-84 -104.5t-31.5 -152.5q0 -82 29.5 -151t89.5 -116q-66 -41 -100 -114.5t-34 -159.5zM350 666q0 47 19.5 89t52.5 70q16 -8 36.5 -15t43.5 -17q27 -10 53.5 -21.5 t50.5 -28.5q49 -29 81 -67.5t32 -91.5q0 -47 -18.5 -89t-51.5 -71q-16 8 -37.5 15t-44.5 18q-25 10 -51.5 21t-50.5 26q-51 29 -83 67.5t-32 94.5z" />
<glyph unicode="&#xa8;" horiz-adv-x="534" d="M-8 1245h209v221h-209v-221zM336 1245h207v221h-207v-221z" />
<glyph unicode="&#xa9;" horiz-adv-x="1579" d="M102 735q0 -324 201 -549q201 -229 485 -229q287 0 488 229q201 225 201 549t-201 549q-201 229 -488 229q-285 0 -485 -229q-201 -225 -201 -549zM238 735q0 264 161 447q162 184 389 184t392 -184q161 -183 161 -447t-161 -446q-164 -184 -392 -185q-227 0 -389 185 q-162 182 -161 446zM391 735q0 -215 113 -346q111 -129 291 -129q145 0 247 80q49 41 82.5 91t53.5 122l-154 55q-10 -57 -28.5 -92t-47.5 -63q-57 -53 -145 -54q-117 0 -180 95q-66 96 -66 235q0 147 68 252q63 100 180 100q92 0 141 -49q29 -25 43.5 -58.5t18.5 -92.5 l163 45q-6 59 -32.5 104t-73.5 88q-92 92 -266 92q-180 0 -295 -139q-113 -137 -113 -336z" />
<glyph unicode="&#xaa;" horiz-adv-x="643" d="M57 1049q0 -86 49 -142q51 -55 142 -55q86 0 139 61v-45h199v113h-80v301q0 98 -57 154q-57 51 -158 51q-102 0 -156 -53q-29 -27 -44 -66t-19 -102h129q2 37 8 56t18 32q20 25 70 24q39 0 65 -26q10 -12 17.5 -34t7.5 -56v-13h-92q-57 0 -102.5 -11t-75.5 -38 q-59 -51 -60 -151zM186 1049q0 51 27 71q12 10 36.5 17.5t65.5 5.5l72 -4q-2 -76 -37 -125q-33 -53 -94 -53q-35 0 -51 22q-8 10 -13.5 26.5t-5.5 39.5z" />
<glyph unicode="&#xab;" d="M209 559l156 -465h182l-158 465l162 465h-182zM528 559l154 -465h184l-157 465l161 465h-184z" />
<glyph unicode="&#xac;" horiz-adv-x="1269" d="M154 801h809v-506h153v676h-962v-170z" />
<glyph unicode="&#xad;" horiz-adv-x="641" d="M86 616h469v154h-469v-154z" />
<glyph unicode="&#xae;" horiz-adv-x="1579" d="M102 735q0 -324 201 -549q201 -229 485 -229q287 0 488 229q201 225 201 549t-201 549q-201 229 -488 229q-285 0 -485 -229q-201 -225 -201 -549zM238 735q0 264 161 447q162 184 389 184t392 -184q162 -182 161 -447q0 -264 -161 -446l-4 -4l-220 397q94 12 154 66 q72 66 72 204q0 111 -66 189q-35 41 -92 58.5t-133 17.5h-395v-947h155v408h137l216 -408h159q-160 -166 -375 -166q-227 0 -389 185q-162 182 -161 446zM651 819v258h217q43 0 73 -7t48 -19q16 -10 25.5 -35t9.5 -70q0 -57 -37 -90q-18 -16 -53 -26.5t-92 -10.5h-191z" />
<glyph unicode="&#xaf;" horiz-adv-x="534" d="M10 1284h516v137h-516v-137z" />
<glyph unicode="&#xb0;" horiz-adv-x="770" d="M92 1186q0 -135 84 -232q86 -98 209 -98t209 98q84 97 84 232t-84 231q-86 98 -209 99q-123 0 -209 -99q-84 -96 -84 -231zM211 1186q0 82 51 143q51 57 123 57t123 -57q51 -61 51 -143t-51 -144q-51 -57 -123 -57t-123 57q-51 61 -51 144z" />
<glyph unicode="&#xb1;" horiz-adv-x="1269" d="M154 -23h962v173h-962v-173zM154 647h401v-454h158v454h403v172h-403v455h-158v-455h-401v-172z" />
<glyph unicode="&#xb2;" horiz-adv-x="641" d="M39 580h563v270h-137v-141h-270l135 137q158 162 209 250q51 84 51 172q0 115 -72 182q-72 70 -192 70q-131 0 -205 -76q-37 -39 -54.5 -94.5t-21.5 -141.5h154q0 59 9 91t25 53q33 39 89 39q49 0 84 -35q33 -37 32 -94q0 -53 -30 -109q-16 -29 -62.5 -85t-128.5 -140 l-178 -187v-161z" />
<glyph unicode="&#xb3;" horiz-adv-x="641" d="M41 870q0 -84 17.5 -139t56.5 -92q74 -74 209 -74q123 0 200 74q76 74 76 195q0 98 -51 163q-14 18 -31.5 31.5t-38.5 24.5q37 16 68 57q47 66 47 150q0 119 -72 188q-72 72 -192 72q-125 0 -203 -76q-39 -37 -58.5 -88t-19.5 -129h154q0 51 8 79.5t25 47.5q33 39 83 39 q61 0 93 -35q33 -39 32 -101q0 -72 -41 -106q-20 -18 -52 -27.5t-89 -9.5v-127q59 0 92 -10t56 -29q43 -37 43 -114q0 -59 -39 -99q-41 -39 -97 -39q-59 0 -88 39q-16 23 -25 52.5t-9 82.5h-154z" />
<glyph unicode="&#xb4;" horiz-adv-x="542" d="M57 1206h146l289 328h-201z" />
<glyph unicode="&#xb5;" horiz-adv-x="1175" d="M59 987h146v-1343h196v360q70 -41 158 -41q78 0 131 31t88 88v-105h338v101h-145v1014h-353v-105h160v-506q0 -66 -12 -129t-38 -112.5t-68 -79t-101 -29.5q-51 0 -83 20.5t-49 57.5t-23.5 87t-6.5 110v686h-338v-105z" />
<glyph unicode="&#xb6;" horiz-adv-x="966" d="M51 1116q0 -178 94 -287q86 -100 228 -116v-998h143v1663h96v-1663h144v1663h157v111h-491q-166 0 -266 -105q-104 -104 -105 -268z" />
<glyph unicode="&#xb7;" horiz-adv-x="534" d="M154 625h227v249h-227v-249z" />
<glyph unicode="&#xb8;" horiz-adv-x="532" d="M55 -395q49 -27 90 -37q45 -14 105 -14q98 0 158 51q63 51 63 141q0 78 -45 123q-47 45 -125 45l-8 -2l94 135h-127l-141 -217l47 -51l90 20q29 0 47 -18q18 -16 19 -43q0 -31 -25 -49q-14 -10 -31.5 -15.5t-42.5 -5.5q-35 0 -65 15l-60 22z" />
<glyph unicode="&#xb9;" horiz-adv-x="641" d="M96 1159q53 37 82 59.5t53 45.5q12 12 24.5 24t25.5 27v-613h-125v-122h391v122h-119v803h-139q-27 -29 -48.5 -51t-44 -42.5t-47 -41t-53.5 -47.5v-164z" />
<glyph unicode="&#xba;" horiz-adv-x="643" d="M63 1174q0 -141 70 -226q68 -88 191 -88q119 0 188 88q68 87 68 226t-68 225q-70 88 -188 88q-123 0 -191 -88q-70 -84 -70 -225zM193 1174q0 98 34 151q33 51 97 51q59 0 90 -49q37 -55 37 -153q0 -51 -10.5 -88t-26.5 -64q-31 -49 -90 -49q-63 0 -97 49q-35 53 -34 152 z" />
<glyph unicode="&#xbb;" d="M205 1024l153 -465l-151 -465h182l152 465l-156 465h-180zM522 1024l156 -465l-152 -465h183l151 465l-155 465h-183z" />
<glyph unicode="&#xbc;" horiz-adv-x="1605" d="M74 1159q53 37 82.5 59.5t54.5 45.5q12 12 24.5 24t24.5 27v-613h-127v-122h391v122h-116v803h-142q-25 -29 -47 -51t-44.5 -42.5t-47.5 -41t-53 -47.5v-164zM369 -23h155l824 1539h-156zM915 213h359v-113h-129v-123h375v123h-107v113h117v125h-117v565h-160l-338 -543 v-147zM1053 338l221 364v-364h-221z" />
<glyph unicode="&#xbd;" horiz-adv-x="1605" d="M76 1159q53 37 81.5 59.5t53.5 45.5q31 27 49 51v-613h-125v-122h391v122h-116v803h-142q-27 -29 -48 -51t-43.5 -42.5t-47.5 -41t-53 -47.5v-164zM313 -23h158l821 1539h-155zM967 -23h563v271h-139v-142h-269l135 138q158 162 209 250q51 90 52 172q0 115 -74 182 q-72 70 -191 70q-131 0 -204 -76q-37 -39 -55.5 -94.5t-20.5 -141.5h153q0 59 9.5 91t25.5 53q31 39 88 38q49 0 84 -34q33 -37 33 -95q0 -53 -31 -108q-16 -29 -62 -85t-128 -140l-178 -187v-162z" />
<glyph unicode="&#xbe;" horiz-adv-x="1605" d="M74 870q0 -84 18.5 -139t57.5 -92q72 -74 208 -74q123 0 201 74q76 74 76 195q0 98 -51 163q-14 18 -31.5 31.5t-38.5 24.5q39 18 66 57q49 63 49 150q0 117 -72 188.5t-192 71.5q-125 0 -203 -76q-41 -37 -59.5 -88t-18.5 -129h154q0 51 8 79.5t24 47.5q31 39 82 39 q61 0 92 -35q35 -39 35 -101q0 -70 -41 -106q-23 -18 -54.5 -27.5t-86.5 -9.5v-127q59 0 92 -10t55 -29q43 -39 43 -114q0 -57 -41 -99q-39 -39 -94 -39q-57 0 -90 39q-16 23 -24.5 52.5t-8.5 82.5h-155zM365 -23h157l821 1539h-155zM915 213h359v-113h-129v-123h375v123 h-107v113h117v125h-117v565h-160l-338 -543v-147zM1053 338l221 364v-364h-221z" />
<glyph unicode="&#xbf;" horiz-adv-x="962" d="M86 -14q0 -150 100 -269q100 -123 283 -123q201 0 301 115q51 59 77 137t30 191h-213q-2 -72 -15.5 -118t-40.5 -79q-49 -63 -131 -63q-90 0 -133 59q-49 61 -49 168q0 102 49 174q27 37 60.5 75t74.5 79q90 94 119 194q12 47 19.5 104.5t7.5 125.5v35h-205 q0 -76 -4 -123t-13 -80q-8 -31 -27.5 -63.5t-53.5 -67.5q-70 -72 -118 -131.5t-71 -108.5q-47 -104 -47 -231zM414 891h217v237h-217v-237z" />
<glyph unicode="&#xc0;" horiz-adv-x="1497" d="M51 -23h518v99h-188l115 389h501l133 -389h-206v-99h520v99h-96l-486 1413h-215l-473 -1413h-123v-99zM475 1931l289 -327h145l-233 327h-201zM561 645l187 586l184 -586h-371z" />
<glyph unicode="&#xc1;" horiz-adv-x="1497" d="M51 -23h518v99h-188l115 389h501l133 -389h-206v-99h520v99h-96l-486 1413h-215l-473 -1413h-123v-99zM561 645l187 586l184 -586h-371zM594 1604h147l287 327h-199z" />
<glyph unicode="&#xc2;" horiz-adv-x="1497" d="M51 -23h518v99h-188l115 389h501l133 -389h-206v-99h520v99h-96l-486 1413h-215l-473 -1413h-123v-99zM442 1604h174l136 190l137 -190h172l-236 327h-145zM561 645l187 586l184 -586h-371z" />
<glyph unicode="&#xc3;" horiz-adv-x="1497" d="M51 -23h518v99h-188l115 389h501l133 -389h-206v-99h520v99h-96l-486 1413h-215l-473 -1413h-123v-99zM449 1626h106q8 37 15.5 54.5t17.5 27.5q14 18 37 18q14 0 40.5 -10t67.5 -33q82 -47 141 -47q80 0 130 68q23 33 37 74t18 102h-107q-8 -37 -15 -54.5t-17 -27.5 q-12 -18 -35 -18q-16 0 -42 10t-67 33q-84 47 -143 47q-80 0 -129 -68q-23 -33 -37 -73.5t-18 -102.5zM561 645l187 586l184 -586h-371z" />
<glyph unicode="&#xc4;" horiz-adv-x="1497" d="M51 -23h518v99h-188l115 389h501l131 -389h-204v-99h520v99h-96l-488 1413h-213l-475 -1413h-121v-99zM477 1642h207v222h-207v-222zM561 645l187 586l184 -586h-371zM819 1642h207v222h-207v-222z" />
<glyph unicode="&#xc5;" horiz-adv-x="1497" d="M51 -23h518v99h-188l115 389h501l133 -389h-206v-99h520v99h-96l-486 1413h-215l-473 -1413h-123v-99zM549 1788q0 -90 59 -160q57 -68 144 -67q84 0 143 67q59 66 59 160t-59 160q-59 68 -143 67q-86 0 -144 -67q-59 -70 -59 -160zM561 645l187 586l184 -586h-371z M655 1788q0 47 29 82q27 31 68 31q39 0 67 -31q29 -35 29 -82t-29 -82q-29 -31 -67 -31q-41 0 -68 31q-29 35 -29 82z" />
<glyph unicode="&#xc6;" horiz-adv-x="1918" d="M102 -23h455v99h-170l148 389h483l31 -389h-175v-99h945v502h-97v-321h-469l-59 497h227v-219h103v621h-103v-221h-252l-57 473h610v-303h97v483h-998l-645 -1413h-74v-99zM627 643l311 688q-2 -23 4 -100.5t15.5 -173.5t18.5 -192.5t16 -157t7 -64.5h-372z" />
<glyph unicode="&#xc7;" horiz-adv-x="1390" d="M129 729q0 -147 28.5 -278.5t90 -234.5t157 -171t228.5 -86l-86 -129l49 -51l88 20q31 0 49 -18q18 -16 19 -43q0 -29 -25 -49q-31 -20 -74 -21q-37 0 -67 15l-58 22l-45 -100q49 -27 90 -37q45 -14 105 -14q96 0 159.5 51t63.5 141q0 78 -47 123q-45 45 -123 45l-8 -2 l27 41q111 2 202.5 39t158.5 106.5t107 174t46 243.5h-123q-10 -174 -106.5 -272.5t-295.5 -98.5q-111 0 -185.5 48.5t-120.5 130.5t-65.5 187t-19.5 222q0 119 20.5 226.5t66.5 188.5t123 128t192 47q158 0 231.5 -104.5t91.5 -294.5h111v565h-103v-146q-63 94 -159.5 131 t-200.5 37q-154 0 -265.5 -64.5t-184 -173t-107.5 -249.5t-35 -295z" />
<glyph unicode="&#xc8;" horiz-adv-x="1280" d="M102 -23h1076v502h-103v-321h-588v497h293v-219h105v621h-105v-221h-293v473h588v-303h103v483h-1076v-98h183l-2 -1315h-181v-99zM395 1931l289 -327h145l-233 327h-201z" />
<glyph unicode="&#xc9;" horiz-adv-x="1280" d="M102 -23h1076v502h-103v-321h-588v497h293v-219h105v621h-105v-221h-293v473h588v-303h103v483h-1076v-98h183l-2 -1315h-181v-99zM514 1604h148l286 327h-198z" />
<glyph unicode="&#xca;" horiz-adv-x="1280" d="M102 -23h1076v502h-103v-321h-588v497h293v-219h105v621h-105v-221h-293v473h588v-303h103v483h-1076v-98h183l-2 -1315h-181v-99zM362 1604h175l135 190l137 -190h172l-236 327h-145z" />
<glyph unicode="&#xcb;" horiz-adv-x="1280" d="M102 -23h1076v502h-103v-321h-588v497h293v-219h105v621h-105v-221h-293v473h588v-303h103v483h-1076v-98h183l-2 -1315h-181v-99zM397 1642h207v222h-207v-222zM739 1642h207v222h-207v-222z" />
<glyph unicode="&#xcc;" horiz-adv-x="641" d="M39 -23h563v99h-180v1315h180v98h-563v-98h180v-1315h-180v-99zM41 1931l289 -327h145l-233 327h-201z" />
<glyph unicode="&#xcd;" horiz-adv-x="641" d="M39 -23h563v99h-180v1315h180v98h-563v-98h180v-1315h-180v-99zM162 1604h145l289 327h-201z" />
<glyph unicode="&#xce;" horiz-adv-x="641" d="M12 1604h172l135 190l138 -190h172l-236 327h-145zM41 -23h563v99h-180v1315h180v98h-563v-98h180v-1315h-180v-99z" />
<glyph unicode="&#xcf;" horiz-adv-x="641" d="M39 -23h563v99h-180v1315h180v98h-563v-98h180v-1315h-180v-99zM43 1642h209v222h-209v-222zM387 1642h207v222h-207v-222z" />
<glyph unicode="&#xd0;" horiz-adv-x="1386" d="M90 -23h551q322 0 489 199q166 197 166 555t-159 555q-160 203 -482 203h-565v-100h182l-2 -517h-180v-112h180l-2 -682h-178v-101zM473 158v602h258v112h-258v437h162q227 0 338 -152q117 -151 117 -444q0 -274 -121 -414q-121 -141 -355 -141h-141z" />
<glyph unicode="&#xd1;" horiz-adv-x="1497" d="M76 -23h549v99h-185v1130l551 -1229h252v1414h178v98h-540v-98h180v-1098l-533 1196h-452v-98h182v-1315h-182v-99zM442 1626h109q8 37 15 54.5t16 27.5q14 18 36 18q16 0 42 -10t67 -33q84 -47 143 -47q80 0 129 68q23 33 36.5 74t19.5 102h-109q-8 -37 -14 -54.5 t-17 -27.5q-12 -18 -34 -18q-16 0 -42 10t-67 33q-84 47 -143 47q-84 0 -129 -68q-23 -33 -37 -73.5t-21 -102.5z" />
<glyph unicode="&#xd2;" horiz-adv-x="1497" d="M127 731q0 -352 166 -563q168 -215 457 -215q285 0 454 215q166 209 166 563q0 176 -40 317.5t-126 247.5q-170 215 -454 215q-289 0 -457 -215q-166 -213 -166 -565zM346 731q0 281 109 443q106 160 295 159q184 0 292 -159q111 -160 111 -443q0 -281 -111 -440 q-109 -160 -292 -160q-188 0 -295 160q-109 162 -109 440zM465 1931l289 -327h145l-233 327h-201z" />
<glyph unicode="&#xd3;" horiz-adv-x="1497" d="M127 731q0 -352 166 -563q168 -215 457 -215q285 0 454 215q166 209 166 563q0 176 -40 317.5t-126 247.5q-170 215 -454 215q-289 0 -457 -215q-166 -213 -166 -565zM346 731q0 281 109 443q106 160 295 159q184 0 292 -159q111 -160 111 -443q0 -281 -111 -440 q-109 -160 -292 -160q-188 0 -295 160q-109 162 -109 440zM586 1604h145l289 327h-201z" />
<glyph unicode="&#xd4;" horiz-adv-x="1497" d="M127 731q0 -352 166 -563q168 -215 457 -215q285 0 454 215q166 209 166 563q0 176 -40 317.5t-126 247.5q-170 215 -454 215q-289 0 -457 -215q-166 -213 -166 -565zM346 731q0 281 109 443q106 160 295 159q184 0 292 -159q111 -160 111 -443q0 -281 -111 -440 q-109 -160 -292 -160q-188 0 -295 160q-109 162 -109 440zM434 1604h172l137 190l136 -190h172l-236 327h-145z" />
<glyph unicode="&#xd5;" horiz-adv-x="1497" d="M127 731q0 -352 166 -563q168 -215 457 -215q285 0 454 215q166 209 166 563q0 176 -40 317.5t-126 247.5q-170 215 -454 215q-289 0 -457 -215q-166 -213 -166 -565zM346 731q0 281 109 443q106 160 295 159q184 0 292 -159q111 -160 111 -443q0 -281 -111 -440 q-109 -160 -292 -160q-188 0 -295 160q-109 162 -109 440zM438 1626h109q8 37 15 54.5t16 27.5q14 18 36 18q16 0 42 -10t67 -33q84 -47 141 -47q82 0 129 68q25 33 38.5 74t19.5 102h-109q-8 -37 -15 -54.5t-16 -27.5q-12 -18 -34 -18q-16 0 -42 10t-67 33q-84 47 -143 47 q-84 0 -129 -68q-25 -33 -38.5 -73.5t-19.5 -102.5z" />
<glyph unicode="&#xd6;" horiz-adv-x="1497" d="M127 731q0 -352 166 -563q168 -215 457 -215q285 0 454 215q166 209 166 563q0 176 -40 317.5t-126 247.5q-170 215 -454 215q-289 0 -457 -215q-166 -213 -166 -565zM346 731q0 281 109 443q106 160 295 159q184 0 292 -159q111 -160 111 -443q0 -281 -111 -440 q-109 -160 -292 -160q-188 0 -295 160q-109 162 -109 440zM467 1642h209v222h-209v-222zM811 1642h207v222h-207v-222z" />
<glyph unicode="&#xd7;" horiz-adv-x="1269" d="M145 297l109 -123l381 434l383 -434l106 123l-381 434l381 434l-106 123l-383 -434l-381 434l-109 -123l383 -434z" />
<glyph unicode="&#xd8;" horiz-adv-x="1499" d="M127 731q0 -332 147 -541l-131 -180l97 -98l125 176q147 -135 385 -135q289 0 454 215q166 209 166 563q0 336 -149 543l129 180l-95 98l-127 -174q-141 133 -378 133q-289 0 -457 -215q-166 -213 -166 -565zM346 731q0 281 109 443q106 160 295 159q164 0 262 -119 l-604 -839q-61 137 -62 356zM485 250l605 842q31 -70 47 -159t16 -202q0 -281 -111 -440q-109 -160 -292 -160q-170 0 -265 119z" />
<glyph unicode="&#xd9;" horiz-adv-x="1390" d="M51 1391h158v-906q0 -229 133 -381q135 -152 346 -151q225 0 359 158q66 78 98.5 183t34.5 234l2 863h157v98h-534v-98h190v-846q0 -188 -82 -295q-80 -106 -213 -107q-139 0 -213 99q-37 51 -57 121.5t-18 164.5l2 863h190v98h-553v-98zM418 1931l289 -327h145l-234 327 h-200z" />
<glyph unicode="&#xda;" horiz-adv-x="1390" d="M51 1391h158v-906q0 -229 133 -381q135 -152 346 -151q225 0 359 158q66 78 98.5 183t34.5 234l2 863h157v98h-534v-98h190v-846q0 -188 -82 -295q-80 -106 -213 -107q-139 0 -213 99q-37 51 -57 121.5t-18 164.5l2 863h190v98h-553v-98zM537 1604h147l287 327h-199z" />
<glyph unicode="&#xdb;" horiz-adv-x="1390" d="M51 1391h158v-906q0 -229 133 -381q135 -152 346 -151q225 0 359 158q66 78 98.5 183t34.5 234l2 863h157v98h-534v-98h190v-846q0 -188 -82 -295q-80 -106 -213 -107q-139 0 -213 99q-37 51 -57 121.5t-18 164.5l2 863h190v98h-553v-98zM385 1604h174l135 190l137 -190 h173l-236 327h-145z" />
<glyph unicode="&#xdc;" horiz-adv-x="1390" d="M51 1391h158v-906q0 -229 133 -381q135 -152 346 -151q225 0 359 158q66 78 98.5 183t34.5 234l2 863h157v98h-534v-98h190v-846q0 -188 -82 -295q-80 -106 -213 -107q-139 0 -213 99q-37 51 -57 121.5t-18 164.5l2 863h190v98h-553v-98zM420 1642h207v222h-207v-222z M762 1642h207v222h-207v-222z" />
<glyph unicode="&#xdd;" horiz-adv-x="1284" d="M39 1391h108l390 -799l-5 -516h-196v-99h602v99h-199v518l396 797h110v98h-485v-98h158l-271 -580l-270 580h166v98h-504v-98zM485 1604h146l289 327h-201z" />
<glyph unicode="&#xde;" horiz-adv-x="1175" d="M66 1391h196l-4 -1315h-180v-99h612v99h-227v225h262q174 0 281 125q102 123 102 328q0 106 -25.5 189t-78.5 142q-104 119 -299 119h-242l4 187h213v98h-614v-98zM463 481v543h180q135 0 197 -66q63 -63 63 -204q0 -143 -57 -207q-53 -66 -172 -66h-211z" />
<glyph unicode="&#xdf;" horiz-adv-x="1067" d="M55 -23h432v103h-86v971q0 100 14.5 158.5t41.5 82.5q57 53 141 54q74 0 125 -46q23 -23 36 -59.5t13 -95.5q-2 -98 -61 -158q-29 -29 -67 -44t-99 -15v-199l51 4q43 4 80 -13.5t65 -47.5q35 -35 52.5 -94.5t17.5 -151.5q0 -129 -51 -205q-14 -18 -31.5 -42.5t-38 -46 t-44 -37t-50.5 -15.5h-41v-103h59q209 0 306 127q94 125 94 336q0 160 -78 281q-57 84 -156 119q76 33 121 94q72 100 72 229q0 172 -101 264q-98 90 -280 91q-176 0 -283 -101q-102 -102 -102 -332v-1005h-152v-103z" />
<glyph unicode="&#xe0;" horiz-adv-x="1073" d="M68 303q0 -172 92 -264t239 -92q92 0 162 42t115 117v-129h330v93h-148v682q0 98 -28.5 168.5t-80 115.5t-120 66.5t-148.5 21.5q-158 0 -243.5 -87t-96.5 -294h101q2 55 24.5 96.5t57 67t77.5 37.5t86 12q98 0 143.5 -63.5t45.5 -177.5v-47q-41 0 -84 2t-90 0 q-53 -2 -104.5 -7.5t-100.5 -19.5t-91 -39.5t-73 -66.5t-48 -98.5t-17 -135.5zM233 1534l289 -328h146l-234 328h-201zM268 303q0 59 17.5 98t49.5 61.5t74 32t91 9.5q45 0 88 -2t88 -4q-2 -74 -17.5 -143.5t-47 -123t-81 -86t-116.5 -32.5q-72 0 -109 50t-37 140z" />
<glyph unicode="&#xe1;" horiz-adv-x="1073" d="M68 303q0 -172 92 -264t239 -92q92 0 162 42t115 117v-129h330v93h-148v682q0 98 -28.5 168.5t-80 115.5t-120 66.5t-148.5 21.5q-158 0 -243.5 -87t-96.5 -294h101q2 55 24.5 96.5t57 67t77.5 37.5t86 12q98 0 143.5 -63.5t45.5 -177.5v-47q-41 0 -84 2t-90 0 q-53 -2 -104.5 -7.5t-100.5 -19.5t-91 -39.5t-73 -66.5t-48 -98.5t-17 -135.5zM268 303q0 59 17.5 98t49.5 61.5t74 32t91 9.5q45 0 88 -2t88 -4q-2 -74 -17.5 -143.5t-47 -123t-81 -86t-116.5 -32.5q-72 0 -109 50t-37 140zM352 1206h146l288 328h-200z" />
<glyph unicode="&#xe2;" horiz-adv-x="1073" d="M68 303q0 -172 92 -264t239 -92q92 0 162 42t115 117v-129h330v93h-148v682q0 98 -28.5 168.5t-80 115.5t-120 66.5t-148.5 21.5q-158 0 -243.5 -87t-96.5 -294h101q2 55 24.5 96.5t57 67t77.5 37.5t86 12q98 0 143.5 -63.5t45.5 -177.5v-47q-41 0 -84 2t-90 0 q-53 -2 -104.5 -7.5t-100.5 -19.5t-91 -39.5t-73 -66.5t-48 -98.5t-17 -135.5zM201 1206h174l135 191l137 -191h172l-235 328h-148zM268 303q0 59 17.5 98t49.5 61.5t74 32t91 9.5q45 0 88 -2t88 -4q-2 -74 -17.5 -143.5t-47 -123t-81 -86t-116.5 -32.5q-72 0 -109 50 t-37 140z" />
<glyph unicode="&#xe3;" horiz-adv-x="1073" d="M68 303q0 -172 92 -264t239 -92q92 0 162 42t115 117v-129h330v93h-148v682q0 98 -28.5 168.5t-80 115.5t-120 66.5t-148.5 21.5q-158 0 -243.5 -87t-96.5 -294h101q2 55 24.5 96.5t57 67t77.5 37.5t86 12q98 0 143.5 -63.5t45.5 -177.5v-47q-41 0 -84 2t-90 0 q-53 -2 -104.5 -7.5t-100.5 -19.5t-91 -39.5t-73 -66.5t-48 -98.5t-17 -135.5zM207 1229h106q8 37 15.5 54t17.5 28q14 18 37 18q14 0 41 -10t68 -33q82 -47 141 -47q80 0 129 68q23 33 37 74t18 102h-106q-10 -37 -16.5 -54.5t-16.5 -27.5q-12 -18 -35 -19q-16 0 -42 10.5 t-66 32.5q-84 47 -144 48q-80 0 -129 -68q-23 -33 -37 -74t-18 -102zM268 303q0 59 17.5 98t49.5 61.5t74 32t91 9.5q45 0 88 -2t88 -4q-2 -74 -17.5 -143.5t-47 -123t-81 -86t-116.5 -32.5q-72 0 -109 50t-37 140z" />
<glyph unicode="&#xe4;" horiz-adv-x="1073" d="M68 303q0 -172 92 -264t239 -92q92 0 162 42t115 117v-129h330v93h-148v682q0 98 -28.5 168.5t-80 115.5t-120 66.5t-148.5 21.5q-158 0 -243.5 -87t-96.5 -294h101q2 55 24.5 96.5t57 67t77.5 37.5t86 12q98 0 143.5 -63.5t45.5 -177.5v-47q-41 0 -84 2t-90 0 q-53 -2 -104.5 -7.5t-98.5 -19.5q-49 -14 -92 -39.5t-74 -66.5t-48 -98.5t-17 -135.5zM236 1245h206v221h-206v-221zM268 303q0 59 17.5 98t49.5 61.5t74 32t91 9.5q45 0 89 -2t87 -4q-2 -74 -17.5 -143.5t-47 -123t-81 -86t-116.5 -32.5q-72 0 -109 50t-37 140zM578 1245 h206v221h-206v-221z" />
<glyph unicode="&#xe5;" horiz-adv-x="1073" d="M68 303q0 -172 92 -264t239 -92q92 0 162 42t115 117v-129h330v93h-148v682q0 98 -28.5 168.5t-80 115.5t-120 66.5t-148.5 21.5q-158 0 -243.5 -87t-96.5 -294h101q2 55 24.5 96.5t57 67t77.5 37.5t86 12q98 0 143.5 -63.5t45.5 -177.5v-47q-41 0 -84 2t-90 0 q-53 -2 -104.5 -7.5t-100.5 -19.5t-91 -39.5t-73 -66.5t-48 -98.5t-17 -135.5zM268 303q0 59 17.5 98t49.5 61.5t74 32t91 9.5q45 0 88 -2t88 -4q-2 -74 -17.5 -143.5t-47 -123t-81 -86t-116.5 -32.5q-72 0 -109 50t-37 140zM307 1397q0 -90 60 -160q57 -68 143 -68 q84 0 143 68q60 70 60 160t-60 159q-59 68 -143 68q-86 0 -143 -68q-59 -70 -60 -159zM414 1397q0 47 28 82q27 31 68 30q39 0 68 -30q28 -35 28 -82t-28 -82q-29 -31 -68 -31q-41 0 -68 31q-29 35 -28 82z" />
<glyph unicode="&#xe6;" horiz-adv-x="1605" d="M139 303q0 -166 85 -261t233 -95q49 0 98 15t92 44t77 70t52 94q61 -111 160.5 -159t220.5 -48q72 0 127 31t92 84t56.5 124.5t19.5 153.5h-94q0 -45 -19.5 -86t-49 -72.5t-65.5 -51t-69 -19.5q-63 0 -112.5 30.5t-84 80t-55 113t-24.5 128.5h587q0 98 -12 211t-49 210 t-106.5 160.5t-184.5 63.5q-90 0 -166 -35.5t-123 -123.5q-43 88 -115.5 123.5t-164.5 35.5q-158 0 -236 -89t-86 -292h109q4 109 63.5 161t141.5 52q92 0 128.5 -66.5t36.5 -174.5v-47q-41 0 -84 1t-83 -1q-49 -2 -97.5 -7.5t-93.5 -19.5q-90 -31 -147.5 -109.5 t-57.5 -228.5zM340 303q0 115 56.5 158t152.5 43q39 0 76.5 -2t76.5 -4q-2 -70 -15 -138.5t-41 -124t-73 -89t-108 -33.5q-68 0 -96.5 53t-28.5 137zM881 645q6 55 20 110.5t39 101.5t60.5 75t82.5 29q51 0 86 -28t55.5 -73t30 -101.5t11.5 -113.5q-96 4 -191.5 2t-193.5 -2 z" />
<glyph unicode="&#xe7;" horiz-adv-x="964" d="M61 530q0 -102 22.5 -195t67 -167t111 -125t156.5 -70l-94 -143l49 -51l88 20q31 0 49 -18q18 -16 18 -43q0 -29 -24 -49q-31 -20 -74 -21q-37 0 -68 15l-57 22l-45 -100q49 -27 90 -37q45 -14 105 -14q96 0 159.5 51t63.5 141q0 78 -47 123q-45 45 -123 45l-10 -2l37 51 q76 2 141 33t114.5 85t79 131t35.5 173h-112q-4 -53 -27 -97t-55.5 -77t-72.5 -51.5t-81 -18.5q-66 0 -120 36t-92 93.5t-58.5 129t-20.5 141.5q0 76 13.5 148.5t44 130t79 91t119.5 33.5q47 0 94.5 -22.5t85 -62.5t61 -93t23.5 -113h105v439h-105v-84q-59 61 -143 88.5 t-156 27.5q-113 0 -192.5 -53t-131.5 -138t-77 -191.5t-25 -211.5z" />
<glyph unicode="&#xe8;" horiz-adv-x="1073" d="M90 530q0 -129 28.5 -233t87 -178t147.5 -115t210 -41q74 0 142.5 25.5t123 76t92 124t50.5 167.5h-97q-2 -49 -30.5 -91t-69.5 -72.5t-87 -48t-85 -17.5q-72 0 -127 26.5t-95 73.5t-63.5 111.5t-29.5 140.5h694q0 129 -16.5 247t-62.5 206t-129 140t-218 52 q-121 0 -209 -47t-144.5 -129t-84 -189.5t-27.5 -228.5zM244 1534l288 -328h146l-234 328h-200zM289 645q6 61 27.5 118.5t54 100.5t77 70t99.5 27q59 0 102 -25t72 -68t43 -100t16 -123q-123 6 -245.5 3t-245.5 -3z" />
<glyph unicode="&#xe9;" horiz-adv-x="1073" d="M90 530q0 -129 28.5 -233t87 -178t147.5 -115t210 -41q74 0 142.5 25.5t123 76t92 124t50.5 167.5h-97q-2 -49 -30.5 -91t-69.5 -72.5t-87 -48t-85 -17.5q-72 0 -127 26.5t-95 73.5t-63.5 111.5t-29.5 140.5h694q0 129 -16.5 247t-62.5 206t-129 140t-218 52 q-121 0 -209 -47t-144.5 -129t-84 -189.5t-27.5 -228.5zM289 645q6 61 27.5 118.5t54 100.5t77 70t99.5 27q59 0 102 -25t72 -68t43 -100t16 -123q-123 6 -245.5 3t-245.5 -3zM365 1206h145l289 328h-201z" />
<glyph unicode="&#xea;" horiz-adv-x="1073" d="M90 530q0 -129 28.5 -233t87 -178t147.5 -115t210 -41q74 0 142.5 25.5t123 76t92 124t50.5 167.5h-97q-2 -49 -30.5 -91t-69.5 -72.5t-87 -48t-85 -17.5q-72 0 -127 26.5t-95 73.5t-63.5 111.5t-29.5 140.5h694q0 129 -16.5 247t-62.5 206t-129 140t-218 52 q-121 0 -209 -47t-144.5 -129t-84 -189.5t-27.5 -228.5zM213 1206h172l135 191l137 -191h172l-235 328h-145zM289 645q6 61 27.5 118.5t54 100.5t77 70t99.5 27q59 0 102 -25t72 -68t43 -100t16 -123q-123 6 -245.5 3t-245.5 -3z" />
<glyph unicode="&#xeb;" horiz-adv-x="1073" d="M90 530q0 -129 28.5 -233t87 -178t147.5 -115t210 -41q74 0 142.5 25.5t123 76t92 124t50.5 167.5h-97q-2 -49 -30.5 -91t-69.5 -72.5t-87 -48t-85 -17.5q-72 0 -127 26.5t-95 73.5t-63.5 111.5t-29.5 140.5h694q0 129 -16.5 247t-62.5 206t-129 140t-218 52 q-121 0 -209 -47t-144.5 -129t-84 -189.5t-27.5 -228.5zM246 1245h207v221h-207v-221zM289 645q6 61 27.5 118.5t54 100.5t77 70t99.5 27q59 0 102 -25t72 -68t43 -100t16 -123q-123 6 -245.5 3t-245.5 -3zM588 1245h209v221h-209v-221z" />
<glyph unicode="&#xec;" horiz-adv-x="569" d="M0 1534l289 -328h145l-233 328h-201zM55 -23h488v97h-144v1018h-344v-97h150v-921h-150v-97z" />
<glyph unicode="&#xed;" horiz-adv-x="571" d="M41 -23h489v97h-143v1018h-344v-97h150v-921h-152v-97zM106 1206h148l287 328h-199z" />
<glyph unicode="&#xee;" horiz-adv-x="569" d="M-25 1206h172l138 191l135 -191h174l-238 328h-145zM61 -23h490v97h-145v1018h-343v-97h150v-921h-152v-97z" />
<glyph unicode="&#xef;" horiz-adv-x="569" d="M10 1245h207v221h-207v-221zM61 -23h490v97h-145v1018h-343v-97h150v-921h-152v-97zM352 1245h207v221h-207v-221z" />
<glyph unicode="&#xf0;" d="M74 512q0 -242 129 -397q129 -154 340 -154q203 0 329 162q123 162 123 414q0 434 -215 704q-18 23 -39.5 46.5t-48.5 47.5l187 127l-91 99l-204 -138q-72 53 -162 86t-215 50v-177q133 -29 213 -69l-174 -117l78 -109l217 146q8 -6 15 -12.5t11 -12.5q96 -90 144 -194 q-45 29 -94.5 45t-102.5 16q-203 0 -321 -160q-119 -158 -119 -403zM274 514q0 174 72 287q68 106 186 106q123 0 189 -102q72 -107 72 -287q0 -176 -72 -282q-70 -102 -186 -103q-111 0 -185 105q-76 111 -76 276z" />
<glyph unicode="&#xf1;" horiz-adv-x="1177" d="M53 -23h496v99h-148v563q0 139 60 227q57 84 147 84q100 0 137 -59q41 -63 41 -211v-604h-147v-99h485v99h-145v686q0 176 -84 268q-82 94 -240 94q-98 0 -174 -49q-47 -29 -80 -86v103h-346v-97h154v-919h-156v-99zM274 1229h107q8 37 15 54t18 28q14 18 37 18 q14 0 40.5 -10t67.5 -33q82 -47 141 -47q80 0 129 68q23 33 37.5 74t18.5 102h-107q-8 -37 -15 -54.5t-18 -27.5q-12 -18 -34 -19q-14 0 -41 10.5t-68 32.5q-84 47 -143 48q-80 0 -129 -68q-23 -33 -37 -74t-19 -102z" />
<glyph unicode="&#xf2;" d="M78 543q0 -262 121 -420q125 -160 338 -160q211 0 333.5 160t122.5 420q0 262 -122.5 421.5t-333.5 159.5q-213 0 -338 -159q-121 -158 -121 -422zM258 1534l287 -328h147l-235 328h-199zM279 543q0 195 67 305q68 104 191 104q119 0 186 -104q35 -55 52.5 -131 t17.5 -174q0 -195 -70 -303q-68 -104 -186 -105q-123 0 -191 105q-68 111 -67 303z" />
<glyph unicode="&#xf3;" d="M78 543q0 -262 121 -420q125 -160 338 -160q211 0 333.5 160t122.5 420q0 262 -122.5 421.5t-333.5 159.5q-213 0 -338 -159q-121 -158 -121 -422zM279 543q0 195 67 305q68 104 191 104q119 0 186 -104q35 -55 52.5 -131t17.5 -174q0 -195 -70 -303q-68 -104 -186 -105 q-123 0 -191 105q-68 111 -67 303zM377 1206h145l289 328h-201z" />
<glyph unicode="&#xf4;" d="M78 543q0 -262 121 -420q125 -160 338 -160q211 0 333.5 160t122.5 420q0 262 -122.5 421.5t-333.5 159.5q-213 0 -338 -159q-121 -158 -121 -422zM225 1206h172l138 191l135 -191h174l-238 328h-145zM279 543q0 195 67 305q68 104 191 104q119 0 186 -104 q35 -55 52.5 -131t17.5 -174q0 -195 -70 -303q-68 -104 -186 -105q-123 0 -191 105q-68 111 -67 303z" />
<glyph unicode="&#xf5;" d="M78 543q0 -262 121 -420q125 -160 338 -160q211 0 333.5 160t122.5 420q0 262 -122.5 421.5t-333.5 159.5q-213 0 -338 -159q-121 -158 -121 -422zM229 1229h109q8 37 15 54t16 28q14 18 37 18q16 0 42.5 -10t67.5 -33q82 -47 141 -47q80 0 129 68q23 33 37.5 74 t18.5 102h-107q-10 -37 -16 -54.5t-17 -27.5q-12 -18 -34 -19q-16 0 -42 10.5t-67 32.5q-84 47 -143 48q-80 0 -129 -68q-23 -33 -37 -74t-21 -102zM279 543q0 195 67 305q68 104 191 104q119 0 186 -104q35 -55 52.5 -131t17.5 -174q0 -195 -70 -303q-68 -104 -186 -105 q-123 0 -191 105q-68 111 -67 303z" />
<glyph unicode="&#xf6;" d="M78 543q0 -262 121 -420q125 -160 338 -160q211 0 333.5 160t122.5 420q0 262 -122.5 421.5t-333.5 159.5q-213 0 -338 -159q-121 -158 -121 -422zM260 1245h207v221h-207v-221zM279 543q0 195 67 305q68 104 191 104q119 0 186 -104q35 -55 52.5 -131t17.5 -174 q0 -195 -70 -303q-68 -104 -186 -105q-123 0 -191 105q-68 111 -67 303zM602 1245h207v221h-207v-221z" />
<glyph unicode="&#xf7;" horiz-adv-x="1269" d="M156 645h958v172h-958v-172zM512 193h229v249h-229v-249zM512 1020h229v250h-229v-250z" />
<glyph unicode="&#xf8;" d="M78 543q0 -244 104 -398l-94 -139l96 -88l88 129q106 -84 265 -84q211 0 333.5 160t122.5 420q0 248 -106 399l96 143l-96 91l-92 -134q-100 82 -258 82q-213 0 -338 -159q-121 -158 -121 -422zM276 543q0 98 17.5 174t52.5 131q68 104 191 104q96 1 155 -65l-385 -561 q-31 86 -31 217zM377 201l385 561q31 -84 31 -219q0 -188 -70 -303q-68 -104 -186 -105q-100 0 -160 66z" />
<glyph unicode="&#xf9;" horiz-adv-x="1175" d="M59 993h146v-631q0 -205 78 -301q41 -51 105.5 -74.5t148.5 -23.5q102 0 174 53q39 27 67 74v-113h338v97h-145v1018h-353v-99h160v-512q0 -164 -61 -258q-57 -92 -158 -92q-90 0 -123 62q-39 66 -39 213v686h-338v-99zM311 1534l287 -328h147l-235 328h-199z" />
<glyph unicode="&#xfa;" horiz-adv-x="1175" d="M59 993h146v-631q0 -205 78 -301q41 -51 105.5 -74.5t148.5 -23.5q102 0 174 53q39 27 67 74v-113h338v97h-145v1018h-353v-99h160v-512q0 -164 -61 -258q-57 -92 -158 -92q-90 0 -123 62q-39 66 -39 213v686h-338v-99zM430 1206h145l289 328h-200z" />
<glyph unicode="&#xfb;" horiz-adv-x="1175" d="M59 993h146v-631q0 -205 78 -301q41 -51 105.5 -74.5t148.5 -23.5q102 0 174 53q39 27 67 74v-113h338v97h-145v1018h-353v-99h160v-512q0 -164 -61 -258q-57 -92 -158 -92q-90 0 -123 62q-39 66 -39 213v686h-338v-99zM279 1206h172l137 191l135 -191h174l-238 328h-145 z" />
<glyph unicode="&#xfc;" horiz-adv-x="1175" d="M59 993h146v-631q0 -205 78 -301q41 -51 105.5 -74.5t148.5 -23.5q102 0 174 53q39 27 67 74v-113h338v97h-145v1018h-353v-99h160v-512q0 -164 -61 -258q-57 -92 -158 -92q-90 0 -123 62q-39 66 -39 213v686h-338v-99zM313 1245h207v221h-207v-221zM655 1245h207v221 h-207v-221z" />
<glyph unicode="&#xfd;" d="M39 987h96l309 -987q-10 -35 -21 -80t-28 -88q-18 -45 -38.5 -68.5t-49.5 -23.5q-25 0 -49 6q-12 2 -28.5 5t-47.5 7v-120q41 -4 75 -10.5t62 -6.5q63 0 109.5 21.5t80.5 58.5t57.5 86t41.5 107l353 1093h71v105h-432v-105h160l-213 -706l-217 706h155v105h-446v-105z M369 1206h145l289 328h-201z" />
<glyph unicode="&#xfe;" horiz-adv-x="1173" d="M63 -258v-96h492v96h-149v371q47 -66 102 -99q82 -51 172 -51q209 0 319 160q111 156 111 428q0 260 -106 416q-111 158 -308 157q-84 0 -176 -51q-68 -39 -114 -119v535h-343v-98h150v-1649h-150zM406 543v20q0 96 19 168t54 123q70 100 189 100q117 0 182 -108 q68 -110 68 -303q0 -182 -72 -301q-66 -111 -178 -111q-125 0 -193 105q-35 53 -52 128.5t-17 178.5z" />
<glyph unicode="&#xff;" d="M39 987h96l309 -987q-10 -35 -21 -80t-28 -88q-18 -45 -38.5 -68.5t-49.5 -23.5q-25 0 -49 6q-12 2 -28.5 5t-47.5 7v-120q41 -4 75 -10.5t62 -6.5q63 0 109.5 21.5t80.5 58.5t57.5 86t41.5 107l353 1093h71v105h-432v-105h160l-213 -706l-217 706h155v105h-446v-105z M252 1245h207v221h-207v-221zM594 1245h207v221h-207v-221z" />
<glyph unicode="&#x152;" horiz-adv-x="1923" d="M143 737q0 -358 154 -563q78 -104 187.5 -158.5t250.5 -50.5l352 12h693v502h-113v-321h-528v497h227v-219h121v621h-121v-221h-227v473h528v-303h113v483h-699q-37 0 -76.5 4t-82.5 8t-85 7t-83 3q-293 0 -453 -204q-158 -203 -158 -570zM358 731q0 299 109 455 q102 150 319 149q57 0 115 -10q18 -4 23 -1l12 11v-1177l-39 -6q-29 -4 -60.5 -6.5t-66.5 -2.5q-205 0 -305 150q-106 154 -107 438z" />
<glyph unicode="&#x153;" horiz-adv-x="1605" d="M88 543q0 -109 22.5 -213.5t74 -186.5t132 -131t195.5 -49q104 0 188 51.5t129 155.5q47 -106 133.5 -156.5t194.5 -50.5q72 0 132.5 30t106.5 82t73.5 123.5t33.5 157.5h-96q0 -47 -19.5 -88t-50 -72.5t-67.5 -50t-70 -18.5q-63 0 -113.5 30.5t-85 80t-55 113 t-24.5 128.5h594q0 104 -13.5 218t-53.5 209t-112.5 156.5t-189.5 61.5t-190.5 -50t-120.5 -154q-43 109 -127 156.5t-195 47.5q-115 0 -195.5 -50t-132 -131t-75 -185.5t-23.5 -214.5zM289 543q0 70 10 143.5t35.5 132t70 96t109.5 37.5q68 0 111 -36.5t69.5 -96t36.5 -132 t10 -144.5t-10 -143.5t-36.5 -131t-69.5 -96.5t-111 -37q-66 0 -110 37t-69.5 96.5t-35.5 131t-10 143.5zM924 645q4 55 19 111.5t41 101.5t62.5 74t83.5 29q51 0 86 -28t56.5 -73t31 -101.5t11.5 -113.5q-98 4 -195.5 2t-195.5 -2z" />
<glyph unicode="&#x178;" horiz-adv-x="1284" d="M39 1391h108l390 -799l-5 -516h-196v-99h602v99h-199v518l396 797h110v98h-485v-98h158l-271 -580l-270 580h166v98h-504v-98zM367 1642h208v222h-208v-222zM711 1642h207v222h-207v-222z" />
<glyph unicode="&#x2c6;" horiz-adv-x="534" d="M-41 1206h172l137 191l135 -191h175l-238 328h-145z" />
<glyph unicode="&#x2dc;" horiz-adv-x="534" d="M-39 1229h109q8 37 15 54t15 28q14 18 37 18q16 0 42 -10t67 -33q84 -47 143 -47q80 0 129 68q23 33 36 74t19 102h-108q-8 -37 -14.5 -54.5t-16.5 -27.5q-12 -18 -35 -19q-16 0 -41.5 10.5t-66.5 32.5q-84 47 -144 48q-84 0 -129 -68q-23 -33 -37 -74t-20 -102z" />
<glyph unicode="&#x2000;" horiz-adv-x="1007" />
<glyph unicode="&#x2001;" horiz-adv-x="2015" />
<glyph unicode="&#x2002;" horiz-adv-x="1007" />
<glyph unicode="&#x2003;" horiz-adv-x="2015" />
<glyph unicode="&#x2004;" horiz-adv-x="671" />
<glyph unicode="&#x2005;" horiz-adv-x="503" />
<glyph unicode="&#x2006;" horiz-adv-x="335" />
<glyph unicode="&#x2007;" horiz-adv-x="335" />
<glyph unicode="&#x2008;" horiz-adv-x="251" />
<glyph unicode="&#x2009;" horiz-adv-x="403" />
<glyph unicode="&#x200a;" horiz-adv-x="111" />
<glyph unicode="&#x2010;" horiz-adv-x="641" d="M86 616h469v154h-469v-154z" />
<glyph unicode="&#x2011;" horiz-adv-x="641" d="M86 616h469v154h-469v-154z" />
<glyph unicode="&#x2012;" horiz-adv-x="641" d="M86 616h469v154h-469v-154z" />
<glyph unicode="&#x2013;" d="M12 479h1047v174h-1047v-174z" />
<glyph unicode="&#x2014;" horiz-adv-x="1925" d="M39 479h1847v174h-1847v-174z" />
<glyph unicode="&#x2018;" horiz-adv-x="536" d="M152 948h233v250h-76l84 291h-151l-90 -309v-232z" />
<glyph unicode="&#x2019;" horiz-adv-x="534" d="M143 948h152l90 309v232h-235v-250h77z" />
<glyph unicode="&#x201a;" horiz-adv-x="536" d="M143 -313h154l88 309v231h-233v-250h75z" />
<glyph unicode="&#x201c;" horiz-adv-x="1069" d="M246 948h235v250h-75l81 291h-151l-90 -309v-232zM590 948h233v250h-75l83 291h-151l-90 -309v-232z" />
<glyph unicode="&#x201d;" horiz-adv-x="1069" d="M240 948h153l88 309v232h-235v-250h78zM582 948h153l88 309v232h-233v-250h76z" />
<glyph unicode="&#x201e;" horiz-adv-x="1069" d="M240 -313h153l88 309v231h-235v-250h78zM582 -313h153l88 309v231h-233v-250h76z" />
<glyph unicode="&#x2022;" horiz-adv-x="894" d="M246 731q0 -92 59 -158q55 -66 144 -65q82 0 141 65q57 64 57 158t-57 158q-59 66 -144 65q-86 0 -141 -65q-59 -66 -59 -158z" />
<glyph unicode="&#x2026;" horiz-adv-x="1925" d="M250 -23h229v250h-229v-250zM848 -23h229v250h-229v-250zM1446 -23h229v250h-229v-250z" />
<glyph unicode="&#x202f;" horiz-adv-x="403" />
<glyph unicode="&#x2039;" horiz-adv-x="534" d="M100 559l156 -465h182l-157 465l161 465h-182z" />
<glyph unicode="&#x203a;" horiz-adv-x="534" d="M96 1024l156 -465l-152 -465h181l151 465l-156 465h-180z" />
<glyph unicode="&#x205f;" horiz-adv-x="503" />
<glyph unicode="&#x2122;" horiz-adv-x="1869" d="M150 1327h239v-717h160v717h235v162h-634v-162zM877 610h167v592l197 -592h107l213 600v-600h159v879h-223l-203 -549l-188 549h-229v-879z" />
<glyph unicode="&#x25fc;" horiz-adv-x="1095" d="M0 0v1096h1096v-1096h-1096z" />
</font>
</defs>
</svg>
